<svg width="400" height="200" viewBox="0 0 400 200" fill="none" xmlns="http://www.w3.org/2000/svg">
<g clip-path="url(#clip0_70_59)">
<path d="M0 84.1333L1 84.294L2 84.5168L3 84.8006L4 85.1444L5 85.5469L6 86.0064L7 86.5211L8 87.089L9 87.7079L10 88.3753L11 89.0885L12 89.8448L13 90.6412L14 91.4745L15 92.3415L16 93.2387L17 94.1626L18 95.1095L19 96.0757L20 97.0575L21 98.0508L22 99.0518L23 100.057L24 101.061L25 102.061L26 103.054L27 104.034L28 104.998L29 105.943L30 106.864L31 107.758L32 108.621L33 109.45L34 110.242L35 110.994L36 111.702L37 112.364L38 112.977L39 113.539L40 114.048L41 114.501L42 114.897L43 115.234L44 115.511L45 115.727L46 115.881L47 115.972L48 116L49 115.965L50 115.867L51 115.706L52 115.483L53 115.199L54 114.855L55 114.453L56 113.993L57 113.479L58 112.911L59 112.292L60 111.625L61 110.911L62 110.155L63 109.359L64 108.525L65 107.658L66 106.761L67 105.837L68 104.89L69 103.924L70 102.942L71 101.949L72 100.948L73 99.9433L74 98.9387L75 97.9384L76 96.9462L77 95.966L78 95.0018L79 94.0573L80 93.1362L81 92.2423L82 91.3789L83 90.5496L84 89.7575L85 89.0059L86 88.2977L87 87.6357L88 87.0224L89 86.4604L90 85.9518L91 85.4986L92 85.1027L93 84.7656L94 84.4886L95 84.2728L96 84.1191L97 84.028L98 84L99 84.0351L100 84.1333L101 84.294L102 84.5168L103 84.8006L104 85.1444L105 85.5469L106 86.0064L107 86.5211L108 87.089L109 87.7079L110 88.3753L111 89.0885L112 89.8448L113 90.6412L114 91.4745L115 92.3415L116 93.2387L117 94.1626L118 95.1095L119 96.0757L120 97.0575L121 98.0508L122 99.0518L123 100.057L124 101.061L125 102.061L126 103.054L127 104.034L128 104.998L129 105.943L130 106.864L131 107.758L132 108.621L133 109.45L134 110.242L135 110.994L136 111.702L137 112.364L138 112.977L139 113.539L140 114.048L141 114.501L142 114.897L143 115.234L144 115.511L145 115.727L146 115.881L147 115.972L148 116L149 115.965L150 115.867L151 115.706L152 115.483L153 115.199L154 114.855L155 114.453L156 113.993L157 113.479L158 112.911L159 112.292L160 111.625L161 110.911L162 110.155L163 109.359L164 108.525L165 107.658L166 106.761L167 105.837L168 104.89L169 103.924L170 102.942L171 101.949L172 100.948L173 99.9433L174 98.9387L175 97.9384L176 96.9462L177 95.966L178 95.0018L179 94.0573L180 93.1362L181 92.2423L182 91.3789L183 90.5496L184 89.7575L185 89.0059L186 88.2977L187 87.6357L188 87.0224L189 86.4604L190 85.9518L191 85.4986L192 85.1027L193 84.7656L194 84.4886L195 84.2728L196 84.1191L197 84.028L198 84L199 84.0351L200 84.1333L201 84.294L202 84.5168L203 84.8006L204 85.1444L205 85.5469L206 86.0064L207 86.5211L208 87.089L209 87.7079L210 88.3753L211 89.0885L212 89.8448L213 90.6412L214 91.4745L215 92.3415L216 93.2387L217 94.1626L218 95.1095L219 96.0757L220 97.0575L221 98.0508L222 99.0518L223 100.057L224 101.061L225 102.061L226 103.054L227 104.034L228 104.998L229 105.943L230 106.864L231 107.758L232 108.621L233 109.45L234 110.242L235 110.994L236 111.702L237 112.364L238 112.977L239 113.539L240 114.048L241 114.501L242 114.897L243 115.234L244 115.511L245 115.727L246 115.881L247 115.972L248 116L249 115.965L250 115.867L251 115.706L252 115.483L253 115.199L254 114.855L255 114.453L256 113.993L257 113.479L258 112.911L259 112.292L260 111.625L261 110.911L262 110.155L263 109.359L264 108.525L265 107.658L266 106.761L267 105.837L268 104.89L269 103.924L270 102.942L271 101.949L272 100.948L273 99.9433L274 98.9387L275 97.9384L276 96.9462L277 95.966L278 95.0018L279 94.0573L280 93.1362L281 92.2423L282 91.3789L283 90.5496L284 89.7575L285 89.0059L286 88.2977L287 87.6357L288 87.0224L289 86.4604L290 85.9518L291 85.4986L292 85.1027L293 84.7656L294 84.4886L295 84.2728L296 84.1191L297 84.028L298 84L299 84.0351L300 84.1333L301 84.294L302 84.5168L303 84.8006L304 85.1444L305 85.5469L306 86.0064L307 86.5211L308 87.089L309 87.7079L310 88.3753L311 89.0885L312 89.8448L313 90.6412L314 91.4745L315 92.3415L316 93.2387L317 94.1626L318 95.1095L319 96.0757L320 97.0575L321 98.0508L322 99.0518L323 100.057L324 101.061L325 102.061L326 103.054L327 104.034L328 104.998L329 105.943L330 106.864L331 107.758L332 108.621L333 109.45L334 110.242L335 110.994L336 111.702L337 112.364L338 112.977L339 113.539L340 114.048L341 114.501L342 114.897L343 115.234L344 115.511L345 115.727L346 115.881L347 115.972L348 116L349 115.965L350 115.867L351 115.706L352 115.483L353 115.199L354 114.855L355 114.453L356 113.993L357 113.479L358 112.911L359 112.292L360 111.625L361 110.911L362 110.155L363 109.359L364 108.525L365 107.658L366 106.761L367 105.837L368 104.89L369 103.924L370 102.942L371 101.949L372 100.948L373 99.9433L374 98.9387L375 97.9384L376 96.9462L377 95.966L378 95.0018L379 94.0573L380 93.1362L381 92.2423L382 91.3789L383 90.5496L384 89.7575L385 89.0059L386 88.2977L387 87.6357L388 87.0224L389 86.4604L390 85.9518L391 85.4986L392 85.1027L393 84.7656L394 84.4886L395 84.2728L396 84.1191L397 84.028L398 84L399 84.0351" stroke="white" stroke-width="5" stroke-miterlimit="10" stroke-linecap="round" stroke-linejoin="round"/>
</g>
<defs>
<clipPath id="clip0_70_59">
<rect width="400" height="200" fill="white"/>
</clipPath>
</defs>
</svg>
