<svg width="24" height="24" viewBox="0 0 24 24" fill="none" xmlns="http://www.w3.org/2000/svg">
<rect width="24" height="24" rx="4" fill="#F6F6F6"/>
<path d="M17.0699 8.83455V18.0981C17.0699 18.5963 16.6658 19 16.168 19H7.83205C7.33388 19 6.93018 18.5963 6.93018 18.0981V5.90188C6.93015 5.4037 7.33385 5 7.83205 5H13.2353L17.0699 8.83455Z" fill="#518EF8"/>
<path d="M14.5923 12.0288H9.40723V12.605H14.5923V12.0288Z" fill="white"/>
<path d="M14.5923 13.3156H9.40723V13.8917H14.5923V13.3156Z" fill="white"/>
<path d="M14.5923 14.6023H9.40723V15.1785H14.5923V14.6023Z" fill="white"/>
<path d="M13.0947 15.8891H9.40723V16.4653H13.0947V15.8891Z" fill="white"/>
<path d="M13.7585 8.75124L17.0699 10.1154V8.83455L15.1925 8.28021L13.7585 8.75124Z" fill="#3A5BBC"/>
<path d="M17.0699 8.83455H14.1372C13.639 8.83455 13.2354 8.43085 13.2354 7.93267V5L17.0699 8.83455Z" fill="#ACD1FC"/>
</svg>
